<?xml version="1.0" encoding="UTF-8"?>
<svg xmlns="http://www.w3.org/2000/svg" xmlns:xlink="http://www.w3.org/1999/xlink" width="30pt" height="30.000001pt" viewBox="0 0 30 30.000001" version="1.2">
<defs>
<clipPath id="clip1">
  <path d="M 1.335938 12 L 7 12 L 7 17 L 1.335938 17 Z M 1.335938 12 "/>
</clipPath>
<clipPath id="clip2">
  <path d="M 2 11 L 28.917969 11 L 28.917969 18 L 2 18 Z M 2 11 "/>
</clipPath>
<clipPath id="clip3">
  <path d="M 1.398438 10.925781 L 28.917969 10.925781 L 28.917969 18.027344 L 1.398438 18.027344 Z M 1.398438 10.925781 "/>
</clipPath>
<clipPath id="clip4">
  <path d="M 4 11 L 28.917969 11 L 28.917969 14 L 4 14 Z M 4 11 "/>
</clipPath>
<clipPath id="clip5">
  <path d="M 4 11 L 28.917969 11 L 28.917969 13 L 4 13 Z M 4 11 "/>
</clipPath>
<clipPath id="clip6">
  <path d="M 4 15 L 28.917969 15 L 28.917969 18 L 4 18 Z M 4 15 "/>
</clipPath>
<clipPath id="clip7">
  <path d="M 1.335938 12 L 6 12 L 6 17 L 1.335938 17 Z M 1.335938 12 "/>
</clipPath>
<clipPath id="clip8">
  <path d="M 1.335938 13 L 6 13 L 6 15 L 1.335938 15 Z M 1.335938 13 "/>
</clipPath>
</defs>
<g id="surface1">
<g clip-path="url(#clip1)" clip-rule="nonzero">
<path style=" stroke:none;fill-rule:nonzero;fill:rgb(96.859741%,59.999084%,47.839355%);fill-opacity:1;" d="M 3.894531 16.394531 C 4.570312 16.34375 5.335938 16.152344 5.890625 15.734375 C 6.15625 15.53125 6.375 15.277344 6.507812 14.960938 C 6.6875 14.535156 6.691406 14.011719 6.445312 13.609375 C 6.289062 13.347656 6.046875 13.175781 5.769531 13.0625 C 5.585938 12.984375 5.382812 12.9375 5.179688 12.90625 C 4.332031 12.773438 3.417969 12.777344 2.546875 12.898438 L 2.542969 12.898438 C 2.308594 13.050781 2.109375 13.234375 1.960938 13.46875 C 1.882812 13.582031 1.820312 13.710938 1.769531 13.851562 C 1.429688 14.816406 1.832031 15.65625 2.523438 16.265625 C 2.574219 16.3125 2.628906 16.355469 2.683594 16.402344 C 3.089844 16.414062 3.492188 16.421875 3.894531 16.394531 "/>
</g>
<g clip-path="url(#clip2)" clip-rule="nonzero">
<path style=" stroke:none;fill-rule:nonzero;fill:rgb(97.24884%,63.529968%,37.249756%);fill-opacity:1;" d="M 17.730469 16.207031 C 17.6875 15.945312 17.644531 15.683594 17.609375 15.421875 C 17.546875 14.949219 17.507812 14.476562 17.527344 13.996094 C 17.554688 13.339844 17.6875 12.707031 17.878906 12.082031 C 17.902344 11.992188 17.933594 11.90625 17.960938 11.816406 C 17.964844 11.804688 17.949219 11.800781 17.945312 11.8125 C 17.90625 11.898438 17.871094 11.988281 17.835938 12.078125 C 17.449219 13.101562 17.300781 14.296875 17.484375 15.390625 C 17.53125 15.675781 17.601562 15.953125 17.695312 16.214844 C 17.703125 16.238281 17.734375 16.230469 17.730469 16.207031 M 19.308594 12.105469 C 19.308594 12.089844 19.285156 12.085938 19.28125 12.101562 C 19.253906 12.226562 19.226562 12.351562 19.199219 12.476562 C 19.03125 13.347656 18.941406 14.269531 19.0625 15.136719 C 19.066406 15.15625 19.09375 15.15625 19.09375 15.136719 C 19.175781 14.261719 19.191406 13.382812 19.269531 12.507812 C 19.28125 12.371094 19.292969 12.238281 19.308594 12.105469 M 10.257812 14.6875 C 10.261719 14.253906 10.195312 13.808594 10.148438 13.378906 C 10.144531 13.355469 10.109375 13.355469 10.113281 13.378906 C 10.140625 13.8125 10.148438 14.261719 10.226562 14.691406 C 10.230469 14.710938 10.257812 14.703125 10.257812 14.6875 M 9.527344 15.726562 C 9.539062 15.746094 9.566406 15.734375 9.5625 15.714844 C 9.457031 15.253906 9.300781 14.835938 9.28125 14.355469 C 9.265625 13.886719 9.335938 13.425781 9.480469 12.980469 C 9.484375 12.960938 9.457031 12.953125 9.449219 12.972656 C 9.140625 13.789062 9.03125 14.949219 9.527344 15.726562 M 25.820312 17.617188 C 24.703125 17.542969 23.585938 17.480469 22.46875 17.433594 C 20.28125 17.34375 18.09375 17.308594 15.902344 17.3125 C 13.976562 17.320312 12.050781 17.347656 10.125 17.371094 C 9.164062 17.378906 8.199219 17.390625 7.238281 17.402344 C 6.320312 17.410156 5.382812 17.425781 4.484375 17.230469 C 4.429688 17.21875 4.375 17.207031 4.320312 17.191406 C 3.996094 17.113281 3.667969 16.988281 3.355469 16.828125 C 3.246094 16.773438 3.136719 16.710938 3.035156 16.644531 C 3.441406 16.648438 3.847656 16.632812 4.25 16.585938 C 5.066406 16.484375 5.894531 16.171875 6.414062 15.53125 C 6.847656 14.996094 7 14.246094 6.6875 13.613281 C 6.335938 12.902344 5.511719 12.710938 4.757812 12.675781 C 4.054688 12.636719 3.378906 12.6875 2.703125 12.800781 C 2.996094 12.640625 3.328125 12.527344 3.679688 12.441406 C 3.890625 12.390625 4.113281 12.351562 4.332031 12.320312 C 4.988281 12.226562 5.648438 12.203125 6.171875 12.160156 C 8.089844 12.003906 10.007812 11.933594 11.925781 11.800781 C 13.878906 11.664062 15.808594 11.359375 17.757812 11.179688 C 19.660156 11 21.5625 11.042969 23.472656 11.058594 C 25.015625 11.066406 26.5625 11.109375 28.105469 11.105469 C 28.210938 11.308594 28.300781 11.519531 28.386719 11.738281 C 28.574219 12.222656 28.691406 12.722656 28.746094 13.230469 C 28.8125 13.832031 28.792969 14.4375 28.6875 15.035156 C 28.601562 15.523438 28.464844 16.003906 28.273438 16.46875 C 28.082031 16.9375 27.824219 17.359375 27.515625 17.742188 C 26.953125 17.6875 26.386719 17.65625 25.820312 17.617188 "/>
</g>
<path style=" stroke:none;fill-rule:nonzero;fill:rgb(83.918762%,43.139648%,18.818665%);fill-opacity:1;" d="M 10.113281 13.378906 C 10.109375 13.355469 10.144531 13.355469 10.148438 13.378906 C 10.195312 13.808594 10.261719 14.253906 10.257812 14.6875 C 10.257812 14.703125 10.230469 14.710938 10.226562 14.691406 C 10.148438 14.261719 10.140625 13.8125 10.113281 13.378906 "/>
<path style=" stroke:none;fill-rule:nonzero;fill:rgb(83.918762%,43.139648%,18.818665%);fill-opacity:1;" d="M 9.480469 12.980469 C 9.335938 13.425781 9.265625 13.886719 9.28125 14.355469 C 9.300781 14.835938 9.457031 15.253906 9.5625 15.714844 C 9.566406 15.734375 9.539062 15.746094 9.527344 15.726562 C 9.03125 14.949219 9.140625 13.789062 9.449219 12.972656 C 9.457031 12.953125 9.484375 12.960938 9.480469 12.980469 "/>
<g clip-path="url(#clip3)" clip-rule="nonzero">
<path style=" stroke:none;fill-rule:nonzero;fill:rgb(83.918762%,43.139648%,18.818665%);fill-opacity:1;" d="M 28.273438 16.46875 C 28.890625 14.960938 28.976562 13.265625 28.386719 11.738281 C 28.300781 11.519531 28.210938 11.308594 28.105469 11.105469 C 26.5625 11.109375 25.015625 11.066406 23.472656 11.058594 C 21.5625 11.042969 19.660156 11 17.757812 11.179688 C 15.808594 11.359375 13.878906 11.664062 11.925781 11.800781 C 10.007812 11.933594 8.089844 12.003906 6.171875 12.160156 C 5.179688 12.242188 3.699219 12.253906 2.703125 12.800781 C 3.378906 12.6875 4.054688 12.636719 4.757812 12.675781 C 5.511719 12.710938 6.335938 12.902344 6.6875 13.613281 C 7 14.246094 6.847656 14.996094 6.414062 15.53125 C 5.894531 16.171875 5.066406 16.484375 4.25 16.585938 C 3.847656 16.632812 3.441406 16.648438 3.035156 16.644531 C 3.433594 16.898438 3.882812 17.085938 4.320312 17.191406 C 5.269531 17.425781 6.265625 17.414062 7.238281 17.402344 C 8.199219 17.390625 9.164062 17.378906 10.125 17.371094 C 12.050781 17.347656 13.976562 17.320312 15.902344 17.3125 C 18.09375 17.308594 20.28125 17.34375 22.46875 17.433594 C 23.585938 17.480469 24.703125 17.542969 25.820312 17.617188 C 26.386719 17.65625 26.953125 17.6875 27.515625 17.742188 C 27.824219 17.359375 28.082031 16.9375 28.273438 16.46875 M 2.546875 12.898438 L 2.542969 12.898438 C 2.191406 13.125 1.917969 13.433594 1.769531 13.851562 C 1.40625 14.890625 1.898438 15.78125 2.683594 16.402344 C 3.089844 16.414062 3.492188 16.421875 3.894531 16.394531 C 4.898438 16.316406 6.09375 15.9375 6.507812 14.960938 C 6.6875 14.535156 6.691406 14.011719 6.445312 13.609375 C 6.179688 13.167969 5.679688 12.984375 5.179688 12.90625 C 4.332031 12.773438 3.417969 12.777344 2.546875 12.898438 M 27.28125 18.011719 C 26.816406 17.976562 26.351562 17.9375 25.882812 17.90625 C 24.871094 17.839844 23.859375 17.78125 22.847656 17.734375 C 20.785156 17.640625 18.71875 17.59375 16.65625 17.59375 C 14.605469 17.59375 12.554688 17.625 10.503906 17.644531 C 9.5 17.65625 8.492188 17.667969 7.488281 17.679688 C 6.554688 17.6875 5.613281 17.710938 4.691406 17.554688 C 3.910156 17.421875 3.117188 17.117188 2.507812 16.636719 C 2.40625 16.558594 2.316406 16.476562 2.226562 16.390625 C 1.808594 15.976562 1.511719 15.464844 1.425781 14.84375 C 1.328125 14.179688 1.511719 13.496094 2.003906 13.007812 C 2.015625 13 2.023438 12.992188 2.035156 12.980469 C 2.054688 12.960938 2.074219 12.941406 2.097656 12.921875 C 2.589844 12.488281 3.257812 12.28125 3.90625 12.160156 C 5.789062 11.8125 7.753906 11.8125 9.664062 11.703125 C 11.667969 11.59375 13.667969 11.457031 15.660156 11.214844 C 16.808594 11.074219 17.960938 10.9375 19.117188 10.882812 C 20.234375 10.832031 21.351562 10.84375 22.464844 10.863281 C 24.320312 10.902344 26.183594 10.914062 28.039062 10.976562 C 28.109375 10.980469 28.179688 10.980469 28.25 10.984375 C 28.273438 11.023438 28.296875 11.066406 28.320312 11.105469 C 28.785156 11.929688 29.0625 12.847656 29.113281 13.78125 C 29.1875 15.234375 28.664062 16.625 27.757812 17.765625 C 27.6875 17.855469 27.613281 17.941406 27.539062 18.027344 C 27.453125 18.023438 27.367188 18.019531 27.28125 18.011719 "/>
</g>
<path style=" stroke:none;fill-rule:nonzero;fill:rgb(83.918762%,43.139648%,18.818665%);fill-opacity:1;" d="M 19.0625 15.136719 C 18.921875 14.140625 19.058594 13.078125 19.28125 12.101562 C 19.285156 12.085938 19.308594 12.089844 19.308594 12.105469 C 19.195312 13.117188 19.1875 14.128906 19.09375 15.136719 C 19.09375 15.15625 19.066406 15.15625 19.0625 15.136719 "/>
<path style=" stroke:none;fill-rule:nonzero;fill:rgb(83.918762%,43.139648%,18.818665%);fill-opacity:1;" d="M 17.695312 16.214844 C 17.203125 14.835938 17.371094 13.144531 17.945312 11.8125 C 17.949219 11.800781 17.964844 11.804688 17.960938 11.816406 C 17.726562 12.527344 17.558594 13.25 17.527344 13.996094 C 17.496094 14.742188 17.605469 15.472656 17.730469 16.207031 C 17.734375 16.230469 17.703125 16.238281 17.695312 16.214844 "/>
<g clip-path="url(#clip4)" clip-rule="nonzero">
<path style=" stroke:none;fill-rule:nonzero;fill:rgb(94.119263%,58.039856%,30.979919%);fill-opacity:1;" d="M 28.746094 13.230469 C 28.738281 13.148438 28.726562 13.0625 28.714844 12.976562 C 28.683594 12.765625 28.636719 12.554688 28.582031 12.34375 C 28.527344 12.140625 28.460938 11.9375 28.386719 11.738281 C 28.300781 11.519531 28.210938 11.308594 28.105469 11.105469 C 28.082031 11.105469 28.058594 11.105469 28.035156 11.105469 C 26.511719 11.105469 24.992188 11.066406 23.472656 11.058594 C 22.738281 11.054688 22.003906 11.042969 21.269531 11.042969 C 20.097656 11.042969 18.925781 11.066406 17.757812 11.179688 C 15.808594 11.359375 13.878906 11.664062 11.925781 11.800781 C 10.007812 11.933594 8.089844 12.003906 6.171875 12.160156 C 5.695312 12.199219 5.109375 12.222656 4.515625 12.296875 C 4.457031 12.304688 4.394531 12.3125 4.332031 12.320312 C 5.773438 12.371094 9.105469 12.511719 10.5 12.433594 C 11.996094 12.351562 15.492188 11.738281 17.070312 11.738281 C 17.667969 11.328125 19.375 11.410156 19.71875 11.492188 C 20.058594 11.574219 26.074219 11.410156 26.929688 11.613281 C 27.582031 11.769531 28.363281 12.457031 28.746094 13.230469 "/>
</g>
<g clip-path="url(#clip5)" clip-rule="nonzero">
<path style=" stroke:none;fill-rule:nonzero;fill:rgb(83.918762%,43.139648%,18.818665%);fill-opacity:1;" d="M 28.714844 12.976562 C 28.683594 12.765625 28.636719 12.554688 28.582031 12.34375 C 28.636719 12.554688 28.683594 12.765625 28.714844 12.976562 M 28.386719 11.738281 C 28.300781 11.519531 28.210938 11.308594 28.105469 11.105469 C 28.210938 11.308594 28.300781 11.519531 28.386719 11.738281 M 28.035156 11.105469 C 26.511719 11.105469 24.992188 11.066406 23.472656 11.058594 C 22.738281 11.054688 22.003906 11.042969 21.269531 11.042969 C 22.003906 11.042969 22.738281 11.054688 23.472656 11.058594 C 24.992188 11.066406 26.511719 11.105469 28.035156 11.105469 M 6.171875 12.160156 C 5.695312 12.199219 5.109375 12.222656 4.515625 12.296875 C 5.109375 12.222656 5.695312 12.199219 6.171875 12.160156 "/>
</g>
<g clip-path="url(#clip6)" clip-rule="nonzero">
<path style=" stroke:none;fill-rule:nonzero;fill:rgb(94.119263%,58.039856%,30.979919%);fill-opacity:1;" d="M 28.6875 15.035156 C 28.105469 16.121094 26.984375 16.707031 25.859375 16.859375 C 24.625 17.023438 19.25 16.285156 19.25 16.285156 C 19.25 16.285156 18.011719 16.777344 17.242188 16.488281 C 14.9375 16.816406 10.585938 16.488281 10.585938 16.488281 C 10.585938 16.488281 9.136719 16.859375 8.582031 16.652344 C 7.121094 16.957031 6.171875 17.222656 4.484375 17.230469 C 5.171875 17.378906 5.882812 17.40625 6.589844 17.40625 C 6.804688 17.40625 7.023438 17.40625 7.238281 17.402344 C 8.199219 17.390625 9.164062 17.378906 10.125 17.371094 C 12.050781 17.347656 13.976562 17.320312 15.902344 17.3125 C 16.074219 17.3125 16.246094 17.3125 16.414062 17.3125 C 18.433594 17.3125 20.453125 17.351562 22.46875 17.433594 C 23.585938 17.480469 24.703125 17.542969 25.820312 17.617188 C 26.386719 17.65625 26.953125 17.6875 27.515625 17.742188 C 27.824219 17.359375 28.082031 16.9375 28.273438 16.46875 C 28.464844 16.003906 28.601562 15.523438 28.6875 15.035156 "/>
</g>
<path style=" stroke:none;fill-rule:nonzero;fill:rgb(98.039246%,72.549438%,64.309692%);fill-opacity:1;" d="M 6.390625 14.375 C 6.390625 14.257812 6.371094 14.140625 6.328125 14.027344 C 6.210938 13.722656 5.945312 13.488281 5.640625 13.34375 C 5.605469 13.429688 5.578125 13.515625 5.550781 13.605469 C 5.972656 13.839844 6.148438 14.121094 6.148438 14.257812 C 6.148438 14.320312 5.871094 14.375 5.457031 14.417969 C 5.476562 14.792969 5.578125 15.164062 5.753906 15.5 C 5.835938 15.441406 5.914062 15.375 5.984375 15.300781 C 6.226562 15.050781 6.390625 14.710938 6.390625 14.375 "/>
<g clip-path="url(#clip7)" clip-rule="nonzero">
<path style=" stroke:none;fill-rule:nonzero;fill:rgb(95.289612%,56.858826%,43.919373%);fill-opacity:1;" d="M 5.890625 15.734375 C 5.839844 15.65625 5.796875 15.582031 5.753906 15.5 C 5.457031 15.71875 5.101562 15.863281 4.742188 15.972656 C 4.027344 16.1875 3.273438 16.289062 2.523438 16.265625 C 2.566406 16.304688 2.609375 16.339844 2.652344 16.375 C 2.664062 16.382812 2.675781 16.394531 2.683594 16.402344 C 2.894531 16.40625 3.105469 16.414062 3.3125 16.414062 C 3.507812 16.414062 3.699219 16.410156 3.894531 16.394531 C 4.3125 16.363281 4.765625 16.277344 5.179688 16.117188 C 5.4375 16.019531 5.679688 15.894531 5.890625 15.734375 M 5.769531 13.0625 C 5.671875 13.023438 5.570312 12.988281 5.464844 12.960938 C 5.371094 12.9375 5.277344 12.917969 5.179688 12.90625 C 4.753906 12.839844 4.308594 12.804688 3.863281 12.804688 C 3.421875 12.804688 2.980469 12.835938 2.546875 12.898438 L 2.542969 12.898438 C 2.503906 12.925781 2.464844 12.949219 2.425781 12.980469 C 2.425781 12.980469 2.425781 12.980469 2.421875 12.980469 C 2.421875 12.980469 2.421875 12.980469 2.421875 12.984375 C 2.421875 12.984375 2.417969 12.984375 2.417969 12.984375 C 2.390625 13.007812 2.363281 13.027344 2.335938 13.050781 C 2.335938 13.050781 2.332031 13.050781 2.332031 13.050781 C 2.332031 13.050781 2.332031 13.054688 2.332031 13.054688 C 2.1875 13.171875 2.0625 13.308594 1.960938 13.46875 C 2.28125 13.273438 2.648438 13.15625 3.019531 13.097656 C 3.523438 13.019531 4.039062 13.042969 4.550781 13.09375 C 4.902344 13.128906 5.261719 13.179688 5.589844 13.320312 C 5.605469 13.328125 5.621094 13.335938 5.640625 13.34375 C 5.675781 13.25 5.722656 13.152344 5.769531 13.0625 "/>
</g>
<path style=" stroke:none;fill-rule:nonzero;fill:rgb(79.998779%,40.388489%,16.079712%);fill-opacity:1;" d="M 5.464844 12.960938 C 5.371094 12.9375 5.277344 12.917969 5.179688 12.90625 C 4.753906 12.839844 4.308594 12.804688 3.863281 12.804688 C 4.308594 12.804688 4.753906 12.839844 5.179688 12.90625 C 5.277344 12.917969 5.371094 12.9375 5.464844 12.960938 M 5.179688 16.117188 C 4.765625 16.277344 4.3125 16.363281 3.894531 16.394531 C 3.699219 16.410156 3.507812 16.414062 3.3125 16.414062 C 3.507812 16.414062 3.699219 16.410156 3.894531 16.394531 C 4.3125 16.363281 4.765625 16.277344 5.179688 16.117188 M 2.683594 16.402344 C 2.675781 16.394531 2.664062 16.382812 2.652344 16.375 C 2.664062 16.382812 2.675781 16.394531 2.683594 16.402344 M 2.425781 12.980469 L 2.425781 12.980469 M 2.425781 12.980469 C 2.425781 12.980469 2.425781 12.980469 2.421875 12.980469 C 2.425781 12.980469 2.425781 12.980469 2.425781 12.980469 M 2.421875 12.984375 L 2.421875 12.984375 M 2.417969 12.984375 L 2.417969 12.984375 M 2.417969 12.984375 C 2.390625 13.007812 2.363281 13.027344 2.335938 13.050781 C 2.363281 13.027344 2.390625 13.007812 2.417969 12.984375 M 2.335938 13.050781 L 2.335938 13.050781 M 2.332031 13.050781 C 2.332031 13.050781 2.332031 13.054688 2.332031 13.054688 C 2.332031 13.054688 2.332031 13.050781 2.332031 13.050781 "/>
<path style=" stroke:none;fill-rule:nonzero;fill:rgb(95.689392%,69.018555%,59.999084%);fill-opacity:1;" d="M 6.636719 14.328125 C 6.636719 14.074219 6.578125 13.824219 6.445312 13.609375 C 6.445312 13.609375 6.445312 13.609375 6.445312 13.605469 C 6.285156 13.347656 6.046875 13.175781 5.769531 13.0625 C 5.722656 13.152344 5.675781 13.25 5.640625 13.34375 C 5.945312 13.488281 6.210938 13.722656 6.328125 14.027344 C 6.371094 14.140625 6.390625 14.257812 6.390625 14.375 C 6.390625 14.710938 6.226562 15.050781 5.984375 15.300781 C 5.914062 15.375 5.835938 15.441406 5.753906 15.5 C 5.796875 15.582031 5.839844 15.65625 5.890625 15.734375 C 6.085938 15.585938 6.253906 15.410156 6.382812 15.199219 C 6.429688 15.125 6.472656 15.046875 6.507812 14.960938 C 6.589844 14.765625 6.636719 14.546875 6.636719 14.328125 "/>
<path style=" stroke:none;fill-rule:nonzero;fill:rgb(84.309387%,58.81958%,42.349243%);fill-opacity:1;" d="M 6.636719 14.328125 C 6.636719 14.074219 6.578125 13.824219 6.445312 13.609375 C 6.445312 13.609375 6.445312 13.609375 6.445312 13.605469 C 6.445312 13.609375 6.445312 13.609375 6.445312 13.609375 C 6.578125 13.824219 6.636719 14.074219 6.636719 14.328125 C 6.636719 14.546875 6.589844 14.765625 6.507812 14.960938 C 6.472656 15.046875 6.429688 15.125 6.382812 15.199219 C 6.429688 15.125 6.472656 15.046875 6.507812 14.960938 C 6.589844 14.765625 6.636719 14.546875 6.636719 14.328125 "/>
<g clip-path="url(#clip8)" clip-rule="nonzero">
<path style=" stroke:none;fill-rule:nonzero;fill:rgb(97.24884%,64.309692%,53.729248%);fill-opacity:1;" d="M 5.550781 13.605469 C 5.199219 13.410156 4.671875 13.253906 3.929688 13.253906 C 2.53125 13.253906 1.808594 13.886719 1.808594 14.238281 C 1.808594 14.292969 1.824219 14.339844 1.863281 14.378906 C 2.019531 14.546875 4.285156 14.535156 5.457031 14.417969 C 5.457031 14.402344 5.457031 14.390625 5.457031 14.375 C 5.457031 14.351562 5.457031 14.324219 5.457031 14.300781 C 5.457031 14.066406 5.488281 13.832031 5.550781 13.605469 "/>
</g>
<path style=" stroke:none;fill-rule:nonzero;fill:rgb(98.039246%,75.689697%,68.238831%);fill-opacity:1;" d="M 6.148438 14.257812 C 6.148438 14.121094 5.972656 13.839844 5.550781 13.605469 C 5.488281 13.832031 5.457031 14.066406 5.457031 14.300781 C 5.457031 14.324219 5.457031 14.351562 5.457031 14.375 C 5.457031 14.390625 5.457031 14.402344 5.457031 14.417969 C 5.871094 14.375 6.148438 14.320312 6.148438 14.257812 "/>
<path style=" stroke:none;fill-rule:nonzero;fill:rgb(100%,100%,100%);fill-opacity:1;" d="M 19.078125 15.152344 C 19.070312 15.152344 19.0625 15.148438 19.0625 15.136719 C 19.023438 14.859375 19.007812 14.578125 19.007812 14.292969 C 19.007812 14.105469 19.015625 13.917969 19.027344 13.726562 C 19.015625 13.917969 19.007812 14.105469 19.007812 14.292969 C 19.007812 14.578125 19.023438 14.859375 19.0625 15.136719 C 19.0625 15.148438 19.070312 15.152344 19.078125 15.152344 M 17.878906 12.082031 C 17.6875 12.707031 17.554688 13.339844 17.527344 13.996094 C 17.554688 13.339844 17.6875 12.707031 17.878906 12.082031 "/>
<path style=" stroke:none;fill-rule:nonzero;fill:rgb(97.648621%,67.449951%,44.309998%);fill-opacity:1;" d="M 27.515625 14.230469 C 27.515625 14.207031 27.515625 14.1875 27.515625 14.164062 C 27.484375 13.765625 27.167969 13.425781 26.792969 13.242188 C 26.421875 13.054688 25.996094 13 25.578125 12.957031 C 24.003906 12.78125 22.417969 12.6875 20.832031 12.671875 C 20.234375 12.667969 19.769531 12.71875 19.269531 12.507812 C 19.191406 13.382812 19.175781 14.261719 19.09375 15.136719 C 19.09375 15.148438 19.085938 15.152344 19.078125 15.152344 C 19.070312 15.152344 19.0625 15.148438 19.0625 15.136719 C 19.023438 14.859375 19.007812 14.578125 19.007812 14.292969 C 19.007812 14.105469 19.015625 13.917969 19.027344 13.726562 C 19.058594 13.308594 19.121094 12.886719 19.199219 12.476562 C 19.160156 12.457031 19.121094 12.4375 19.078125 12.414062 C 18.695312 12.207031 18.296875 12.097656 17.878906 12.082031 C 17.6875 12.707031 17.554688 13.339844 17.527344 13.996094 C 17.523438 14.085938 17.523438 14.175781 17.523438 14.261719 C 17.523438 14.652344 17.558594 15.039062 17.609375 15.421875 C 18.195312 15.554688 18.832031 15.488281 19.335938 15.175781 C 21.394531 15.84375 23.636719 15.988281 25.769531 15.585938 C 26.183594 15.507812 26.597656 15.40625 26.941406 15.175781 C 27.265625 14.960938 27.515625 14.605469 27.515625 14.230469 "/>
<path style=" stroke:none;fill-rule:nonzero;fill:rgb(100%,100%,100%);fill-opacity:1;" d="M 10.257812 14.640625 C 10.257812 14.253906 10.203125 13.859375 10.160156 13.476562 C 10.203125 13.859375 10.257812 14.253906 10.257812 14.640625 M 10.242188 14.703125 C 10.234375 14.703125 10.226562 14.699219 10.226562 14.691406 C 10.148438 14.261719 10.140625 13.8125 10.113281 13.378906 C 10.113281 13.378906 10.113281 13.378906 10.113281 13.375 C 10.113281 13.378906 10.113281 13.378906 10.113281 13.378906 C 10.140625 13.8125 10.148438 14.261719 10.226562 14.691406 C 10.226562 14.699219 10.234375 14.703125 10.242188 14.703125 M 10.15625 13.457031 C 10.15625 13.453125 10.15625 13.453125 10.15625 13.449219 C 10.15625 13.453125 10.15625 13.453125 10.15625 13.457031 M 10.15625 13.429688 C 10.152344 13.429688 10.152344 13.425781 10.152344 13.421875 C 10.152344 13.425781 10.152344 13.429688 10.15625 13.429688 M 10.152344 13.40625 L 10.152344 13.40625 M 9.5625 15.71875 L 9.5625 15.71875 M 9.5625 15.71875 C 9.5625 15.714844 9.5625 15.714844 9.5625 15.714844 C 9.5625 15.714844 9.5625 15.714844 9.5625 15.71875 M 9.527344 15.726562 L 9.527344 15.726562 M 9.527344 15.722656 C 9.285156 15.34375 9.1875 14.871094 9.1875 14.390625 C 9.1875 14.871094 9.285156 15.34375 9.527344 15.722656 M 9.480469 12.976562 C 9.480469 12.960938 9.457031 12.957031 9.449219 12.972656 C 9.457031 12.957031 9.480469 12.960938 9.480469 12.976562 M 9.28125 14.355469 C 9.28125 14.308594 9.277344 14.265625 9.277344 14.21875 C 9.277344 14.265625 9.28125 14.308594 9.28125 14.355469 M 9.277344 14.21875 L 9.277344 14.21875 M 9.1875 14.390625 L 9.1875 14.390625 M 6.851562 14.332031 L 6.851562 14.332031 M 6.851562 14.328125 C 6.851562 14.089844 6.800781 13.847656 6.691406 13.621094 C 6.800781 13.847656 6.851562 14.089844 6.851562 14.328125 M 6.691406 13.621094 C 6.691406 13.617188 6.6875 13.617188 6.6875 13.613281 C 6.6875 13.617188 6.691406 13.617188 6.691406 13.621094 M 6.421875 15.519531 L 6.421875 15.519531 "/>
<path style=" stroke:none;fill-rule:nonzero;fill:rgb(97.648621%,67.449951%,44.309998%);fill-opacity:1;" d="M 17.835938 12.078125 C 17.652344 12.074219 17.464844 12.085938 17.273438 12.113281 C 16.457031 12.234375 16.175781 12.515625 15.792969 12.761719 C 14.242188 13.039062 11.726562 12.566406 10.167969 12.78125 C 9.507812 12.875 8.863281 13.078125 8.195312 13.105469 C 7.214844 13.148438 6.269531 12.796875 5.3125 12.582031 C 4.785156 12.464844 4.21875 12.390625 3.679688 12.441406 C 3.328125 12.527344 2.996094 12.640625 2.703125 12.800781 C 3.230469 12.710938 3.761719 12.664062 4.304688 12.664062 C 4.453125 12.664062 4.605469 12.667969 4.757812 12.675781 C 5.511719 12.710938 6.335938 12.902344 6.6875 13.613281 C 6.6875 13.617188 6.691406 13.617188 6.691406 13.621094 C 6.800781 13.847656 6.851562 14.089844 6.851562 14.328125 C 6.851562 14.328125 6.851562 14.332031 6.851562 14.332031 C 6.851562 14.753906 6.695312 15.179688 6.421875 15.519531 C 6.421875 15.523438 6.417969 15.523438 6.417969 15.527344 C 6.417969 15.527344 6.414062 15.53125 6.414062 15.53125 C 5.894531 16.171875 5.066406 16.484375 4.25 16.585938 C 3.875 16.628906 3.5 16.644531 3.121094 16.644531 C 3.089844 16.644531 3.0625 16.644531 3.035156 16.644531 C 3.117188 16.695312 3.199219 16.746094 3.285156 16.792969 C 3.308594 16.804688 3.332031 16.816406 3.355469 16.828125 C 4 16.804688 4.65625 16.640625 5.273438 16.441406 C 6.328125 16.105469 7.382812 15.671875 8.492188 15.699219 C 8.902344 15.710938 9.3125 15.785156 9.726562 15.769531 C 10.140625 15.753906 10.449219 15.660156 10.714844 15.355469 C 12.960938 15.324219 15.242188 14.644531 17.367188 15.355469 C 17.40625 15.367188 17.445312 15.378906 17.484375 15.390625 C 17.429688 15.078125 17.40625 14.753906 17.40625 14.429688 C 17.40625 13.625 17.5625 12.808594 17.835938 12.078125 M 10.257812 14.640625 C 10.257812 14.65625 10.257812 14.671875 10.257812 14.6875 C 10.257812 14.695312 10.25 14.703125 10.242188 14.703125 C 10.234375 14.703125 10.226562 14.699219 10.226562 14.691406 C 10.148438 14.261719 10.140625 13.8125 10.113281 13.378906 C 10.113281 13.378906 10.113281 13.378906 10.113281 13.375 C 10.113281 13.355469 10.144531 13.355469 10.148438 13.378906 C 10.148438 13.386719 10.152344 13.398438 10.152344 13.40625 C 10.152344 13.414062 10.152344 13.417969 10.152344 13.421875 C 10.152344 13.425781 10.152344 13.429688 10.15625 13.429688 C 10.15625 13.4375 10.15625 13.441406 10.15625 13.449219 C 10.15625 13.453125 10.15625 13.453125 10.15625 13.457031 C 10.160156 13.464844 10.160156 13.46875 10.160156 13.476562 C 10.203125 13.859375 10.257812 14.253906 10.257812 14.640625 M 9.5625 15.71875 C 9.5625 15.734375 9.539062 15.742188 9.527344 15.726562 C 9.527344 15.726562 9.527344 15.726562 9.527344 15.722656 C 9.285156 15.34375 9.1875 14.871094 9.1875 14.390625 C 9.1875 13.894531 9.292969 13.386719 9.449219 12.972656 C 9.457031 12.957031 9.480469 12.960938 9.480469 12.976562 C 9.480469 12.976562 9.480469 12.980469 9.480469 12.980469 C 9.351562 13.382812 9.28125 13.800781 9.277344 14.21875 C 9.277344 14.265625 9.28125 14.308594 9.28125 14.355469 C 9.300781 14.835938 9.457031 15.253906 9.5625 15.714844 C 9.5625 15.714844 9.5625 15.714844 9.5625 15.71875 "/>
<path style=" stroke:none;fill-rule:nonzero;fill:rgb(85.099792%,49.409485%,27.839661%);fill-opacity:1;" d="M 10.257812 14.640625 C 10.257812 14.253906 10.203125 13.859375 10.160156 13.476562 C 10.160156 13.46875 10.160156 13.464844 10.15625 13.457031 C 10.15625 13.453125 10.15625 13.453125 10.15625 13.449219 C 10.15625 13.441406 10.15625 13.4375 10.15625 13.429688 C 10.152344 13.429688 10.152344 13.425781 10.152344 13.421875 C 10.152344 13.417969 10.152344 13.414062 10.152344 13.40625 C 10.152344 13.398438 10.148438 13.386719 10.148438 13.378906 C 10.144531 13.355469 10.113281 13.355469 10.113281 13.375 C 10.113281 13.378906 10.113281 13.378906 10.113281 13.378906 C 10.140625 13.8125 10.148438 14.261719 10.226562 14.691406 C 10.226562 14.699219 10.234375 14.703125 10.242188 14.703125 C 10.25 14.703125 10.257812 14.695312 10.257812 14.6875 C 10.257812 14.671875 10.257812 14.65625 10.257812 14.640625 "/>
<path style=" stroke:none;fill-rule:nonzero;fill:rgb(85.099792%,49.409485%,27.839661%);fill-opacity:1;" d="M 9.5625 15.71875 C 9.5625 15.714844 9.5625 15.714844 9.5625 15.714844 C 9.457031 15.253906 9.300781 14.835938 9.28125 14.355469 C 9.28125 14.308594 9.277344 14.265625 9.277344 14.21875 C 9.28125 13.800781 9.351562 13.382812 9.480469 12.980469 C 9.480469 12.980469 9.480469 12.976562 9.480469 12.976562 C 9.480469 12.960938 9.457031 12.957031 9.449219 12.972656 C 9.292969 13.386719 9.1875 13.894531 9.1875 14.390625 C 9.1875 14.871094 9.285156 15.34375 9.527344 15.722656 C 9.527344 15.726562 9.527344 15.726562 9.527344 15.726562 C 9.539062 15.742188 9.5625 15.734375 9.5625 15.71875 "/>
<path style=" stroke:none;fill-rule:nonzero;fill:rgb(85.099792%,49.409485%,27.839661%);fill-opacity:1;" d="M 4.304688 12.664062 C 3.761719 12.664062 3.230469 12.710938 2.703125 12.800781 C 3.230469 12.710938 3.761719 12.664062 4.304688 12.664062 M 3.679688 12.441406 C 3.328125 12.527344 2.996094 12.640625 2.703125 12.800781 C 2.996094 12.640625 3.328125 12.527344 3.679688 12.441406 M 3.355469 16.828125 C 3.332031 16.816406 3.308594 16.804688 3.285156 16.792969 C 3.308594 16.804688 3.332031 16.816406 3.355469 16.828125 M 3.121094 16.644531 C 3.089844 16.644531 3.0625 16.644531 3.035156 16.644531 C 3.0625 16.644531 3.089844 16.644531 3.121094 16.644531 "/>
<path style=" stroke:none;fill-rule:nonzero;fill:rgb(85.099792%,49.409485%,27.839661%);fill-opacity:1;" d="M 19.269531 12.507812 C 19.246094 12.496094 19.222656 12.488281 19.199219 12.476562 C 19.121094 12.886719 19.058594 13.308594 19.027344 13.726562 C 19.015625 13.917969 19.007812 14.105469 19.007812 14.292969 C 19.007812 14.578125 19.023438 14.859375 19.0625 15.136719 C 19.0625 15.148438 19.070312 15.152344 19.078125 15.152344 C 19.085938 15.152344 19.09375 15.148438 19.09375 15.136719 C 19.175781 14.261719 19.191406 13.382812 19.269531 12.507812 "/>
<path style=" stroke:none;fill-rule:nonzero;fill:rgb(85.099792%,49.409485%,27.839661%);fill-opacity:1;" d="M 17.878906 12.082031 C 17.863281 12.078125 17.851562 12.078125 17.835938 12.078125 C 17.5625 12.808594 17.40625 13.625 17.40625 14.429688 C 17.40625 14.753906 17.429688 15.078125 17.484375 15.390625 C 17.523438 15.402344 17.566406 15.414062 17.609375 15.421875 C 17.558594 15.039062 17.523438 14.652344 17.523438 14.261719 C 17.523438 14.175781 17.523438 14.085938 17.527344 13.996094 C 17.554688 13.339844 17.6875 12.707031 17.878906 12.082031 "/>
</g>
</svg>
